#!OML:ASF H:\Pregnant\Project 1\Capture day 1\Session 1\femalepreg.ASF
:FULLY-SPECIFIED
:DEGREES
344
root -0.349988 16.0507 -12.0101 19.0025 -2.42163 1.20378
lowerback -14.4047 1.00781 -8.75811
upperback -6.27271 2.61824 -5.3061
thorax 1.2599 1.38656 -0.260315
lowerneck -19.4887 -3.79664 -0.881541
upperneck 23.9954 -6.98764 6.73613
head 11.3322 -2.39453 1.52801
rclavicle 1.6027e-014 3.18055e-015
rhumerus -43.9267 6.56047 -89.8638
rradius 37.036
rwrist -17.4449
rhand -15.7226 -21.5933
rfingers 7.12502
rthumb 10.4678 -51.3127
lclavicle 1.6027e-014 3.18055e-015
lhumerus -32.7823 -6.9823 75.2593
lradius 21.3666
lwrist 35.2688
lhand -25.4814 -2.15639
lfingers 7.12502
lthumb 1.04664 27.8208
rfemur -23.3217 9.87527 19.2158
rtibia 53.2662
rfoot -8.13617 -0.63155
rtoes -16.5651
lfemur -36.7191 -6.21446 -23.6477
ltibia 22.1654
lfoot -6.08464 -2.60221
ltoes -15.4399
345
root -0.356745 16.0433 -12.0852 19.0242 -2.48414 1.1674
lowerback -14.4952 1.18612 -8.37159
upperback -6.30745 2.81297 -5.3693
thorax 1.287 1.47653 -0.509023
lowerneck -19.5048 -3.75452 -0.897441
upperneck 24.039 -6.88104 6.58162
head 11.3396 -2.36534 1.49123
rclavicle -1.58282e-014 -4.77083e-015
rhumerus -43.3997 6.89093 -90.0148
rradius 37.2074
rwrist -17.3896
rhand -15.3907 -21.8159
rfingers 7.12502
rthumb 10.7879 -51.5188
lclavicle -1.58282e-014 -4.77083e-015
lhumerus -33.3006 -6.31273 74.7856
lradius 21.1726
lwrist 35.0402
lhand -26.0748 -1.94842
lfingers 7.12502
lthumb 0.473458 28.0308
rfemur -22.2493 9.86482 19.3159
rtibia 51.5193
rfoot -8.5458 -0.905307
rtoes -19.5454
lfemur -37.1372 -6.22532 -23.5116
ltibia 22.3084
lfoot -5.87916 -2.56299
ltoes -15.5438
346
root -0.363385 16.0346 -12.1609 19.0373 -2.56807 1.11479
lowerback -14.5815 1.37734 -7.95554
upperback -6.33799 3.01995 -5.42536
thorax 1.31991 1.57205 -0.764481
lowerneck -19.4968 -3.71123 -0.901493
upperneck 24.0466 -6.77088 6.41896
head 11.3279 -2.33624 1.4501
rclavicle 3.00662e-014 2.54444e-014
rhumerus -42.8602 7.18992 -90.1361
rradius 37.3782
rwrist -17.3507
rhand -15.1459 -21.9529
rfingers 7.12502
rthumb 11.024 -51.6434
lclavicle 3.00662e-014 2.54444e-014
lhumerus -33.8485 -5.7052 74.3363
lradius 21.078
lwrist 34.9546
lhand -26.6419 -1.71699
lfingers 7.12502
lthumb -0.0742443 28.2627
rfemur -21.1719 9.8686 19.4203
rtibia 49.6606
rfoot -9.27539 -1.22838
rtoes -22.7984
lfemur -37.5754 -6.24275 -23.3514
ltibia 22.504
lfoot -5.68369 -2.47901
ltoes -15.6811
347
root -0.369894 16.0247 -12.2367 19.0295 -2.67677 1.04916
lowerback -14.6505 1.58129 -7.51327
upperback -6.36253 3.23802 -5.47458
thorax 1.35378 1.67275 -1.02575
lowerneck -19.4669 -3.66493 -0.887852
upperneck 24.0233 -6.65526 6.24152
head 11.2991 -2.30634 1.40156
rclavicle 1.0312e-014 -1.90833e-014
rhumerus -42.3138 7.45176 -90.2254
rradius 37.5578
rwrist -17.3108
rhand -14.982 -22.0165
rfingers 7.12502
rthumb 11.1821 -51.6985
lclavicle 1.0312e-014 -1.90833e-014
lhumerus -34.4204 -5.14514 73.9047
lradius 21.0622
lwrist 34.9992
lhand -27.1355 -1.61976
lfingers 7.12502
lthumb -0.550994 28.3593
rfemur -20.0842 9.87628 19.5292
rtibia 47.7257
rfoot -10.3 -1.61441
rtoes -25.7929
lfemur -38.0081 -6.25974 -23.1742
ltibia 22.7333
lfoot -5.49729 -2.35462
ltoes -15.8526
348
root -0.376164 16.0142 -12.3123 18.9992 -2.81652 0.972579
lowerback -14.7149 1.8017 -7.04478
upperback -6.37802 3.47396 -5.51916
thorax 1.399 1.78173 -1.29364
lowerneck -19.4186 -3.61609 -0.873794
upperneck 23.9776 -6.53511 6.06656
head 11.2585 -2.27503 1.35471
rclavicle 3.81418e-014 -2.06736e-014
rhumerus -41.7648 7.67833 -90.287
rradius 37.7476
rwrist -17.288
rhand -14.9203 -21.9954
rfingers 7.12502
rthumb 11.2416 -51.6741
lclavicle 3.81418e-014 -2.06736e-014
lhumerus -35.0086 -4.63595 73.4906
lradius 21.1042
lwrist 35.1629
lhand -27.4315 -1.78554
lfingers 7.12502
lthumb -0.836867 28.1926
rfemur -18.9974 9.88487 19.6364
rtibia 45.7622
rfoot -11.5434 -2.05025
rtoes -27.9802
lfemur -38.4141 -6.27794 -22.9814
ltibia 22.9692
lfoot -5.31237 -2.18227
ltoes -16.0522
349
root -0.382203 16.0044 -12.3883 18.9507 -2.98287 0.886615
lowerback -14.7625 2.03001 -6.55498
upperback -6.38708 3.71545 -5.55086
thorax 1.44629 1.8934 -1.55913
lowerneck -19.3683 -3.56347 -0.89176
upperneck 23.9225 -6.40588 5.91604
head 11.2161 -2.23966 1.32354
rclavicle 5.4144e-014 -2.54444e-014
rhumerus -41.2073 7.8784 -90.3122
rradius 37.9459
rwrist -17.2575
rhand -14.9464 -21.9108
rfingers 7.12502
rthumb 11.2165 -51.5909
lclavicle 5.4144e-014 -2.54444e-014
lhumerus -35.6091 -4.15074 73.0966
lradius 21.1962
lwrist 35.4255
lhand -27.6052 -2.04379
lfingers 7.12502
lthumb -1.00458 27.9336
rfemur -17.9316 9.89455 19.7407
rtibia 43.8236
rfoot -12.8948 -2.52494
rtoes -29.2319
lfemur -38.7858 -6.29517 -22.7737
ltibia 23.1847
lfoot -5.11681 -1.97151
ltoes -16.2654
350
root -0.388242 15.9961 -12.4642 18.8863 -3.17612 0.792477
lowerback -14.8026 2.27382 -6.03969
upperback -6.38998 3.97339 -5.5817
thorax 1.5014 2.01296 -1.83518
lowerneck -19.3054 -3.51165 -0.919076
upperneck 23.856 -6.27815 5.77941
head 11.1682 -2.20451 1.29886
rclavicle -4.05521e-014 3.65764e-014
rhumerus -40.6434 8.02458 -90.3108
rradius 38.1493
rwrist -17.2249
rhand -15.0085 -21.8137
rfingers 7.12502
rthumb 11.1566 -51.4971
lclavicle -4.05521e-014 3.65764e-014
lhumerus -36.2077 -3.70287 72.7041
lradius 21.3021
lwrist 35.7368
lhand -27.5595 -2.48506
lfingers 7.12502
lthumb -0.960444 27.4925
rfemur -16.8988 9.91584 19.8409
rtibia 41.9513
rfoot -14.2288 -3.05219
rtoes -29.7324
lfemur -39.113 -6.31194 -22.5503
ltibia 23.3621
lfoot -4.90861 -1.72113
ltoes -16.4975
